<svg width="711" height="569" viewBox="0 0 711 569" fill="none" xmlns="http://www.w3.org/2000/svg">
<g clip-path="url(#clip0_76_19)">
<path d="M488.812 26.6719V0H435.487V26.6719V115.578V142.25H488.812V115.578V26.6719ZM312.173 43.3418L293.288 24.4492L255.627 62.2344L274.513 81.127L336.725 143.361L355.611 162.254L393.161 124.469L374.386 105.576L312.173 43.3418ZM649.898 81.127L668.784 62.2344L631.013 24.5604L612.127 43.3418L549.914 105.576L531.028 124.469L568.8 162.143L587.686 143.25L649.898 81.0158V81.127ZM711 213.375H568.8C539.138 191.037 502.144 177.812 462.15 177.812C422.156 177.812 385.162 191.037 355.5 213.375H0V497.875H71.1L88.875 569H159.975L177.75 497.875H355.5C385.162 520.213 422.156 533.438 462.15 533.438C489.257 533.438 514.92 527.325 537.916 516.545L551.025 569H622.125L639.9 497.875H711V213.375ZM462.15 248.938C490.435 248.938 517.562 260.178 537.563 280.186C557.564 300.193 568.8 327.33 568.8 355.625C568.8 383.92 557.564 411.057 537.563 431.064C517.562 451.072 490.435 462.312 462.15 462.312C433.865 462.312 406.738 451.072 386.737 431.064C366.736 411.057 355.5 383.92 355.5 355.625C355.5 327.33 366.736 300.193 386.737 280.186C406.738 260.178 433.865 248.938 462.15 248.938ZM71.1 355.625C71.1 346.193 74.8454 337.148 81.5124 330.479C88.1793 323.809 97.2215 320.062 106.65 320.062C116.078 320.062 125.121 323.809 131.788 330.479C138.455 337.148 142.2 346.193 142.2 355.625C142.2 365.057 138.455 374.102 131.788 380.771C125.121 387.441 116.078 391.188 106.65 391.188C97.2215 391.188 88.1793 387.441 81.5124 380.771C74.8454 374.102 71.1 365.057 71.1 355.625ZM213.3 320.062C222.728 320.062 231.771 323.809 238.438 330.479C245.105 337.148 248.85 346.193 248.85 355.625C248.85 365.057 245.105 374.102 238.438 380.771C231.771 387.441 222.728 391.188 213.3 391.188C203.872 391.188 194.829 387.441 188.162 380.771C181.495 374.102 177.75 365.057 177.75 355.625C177.75 346.193 181.495 337.148 188.162 330.479C194.829 323.809 203.872 320.062 213.3 320.062Z" fill="white"/>
</g>
<defs>
<clipPath id="clip0_76_19">
<rect width="711" height="569" fill="white"/>
</clipPath>
</defs>
</svg>
